<svg id="Layer_1" data-name="Layer 1" xmlns="http://www.w3.org/2000/svg" viewBox="0 0 512 512"><defs><style>.cls-1{fill:#0078ea;}.cls-2{fill:#fff;}</style></defs><rect class="cls-1" x="-11" y="-11" width="534" height="534"/><path class="cls-2" d="M150.52,256H250.79a.35.35,0,0,0,.28-.55L150.6,114.81A.52.52,0,0,1,151,114H288.38c42.33,0,78.67,33,79.6,75.34A76.93,76.93,0,0,1,332.3,256,76.93,76.93,0,0,1,368,322.68C367.05,365,330.71,398,288.38,398H150.53a.52.52,0,0,1-.52-.52v-141A.52.52,0,0,1,150.52,256Z"/></svg>