<svg xmlns="http://www.w3.org/2000/svg" viewBox="0 0 233.95 41.9"><defs><style>.cls-1{fill:#fff;}.cls-2{fill:#1179e3;}</style></defs><g id="Layer_2" data-name="Layer 2"><g id="Layer_1-2" data-name="Layer 1"><path class="cls-1" d="M57.89,7.54c5.19,0,8.12,3,8.12,7.18a5.91,5.91,0,0,1-3.87,5.71,6.31,6.31,0,0,1,4.7,6.32c0,4.32-3.24,7.44-8.24,7.44H48.3V7.54Zm-.79,11c2.37,0,3.8-1.31,3.8-3.34s-1.32-3.31-3.84-3.31H53.41v6.65Zm.53,11.32c2.51,0,4-1.32,4-3.46s-1.35-3.57-3.95-3.57H53.41v7Z"/><path class="cls-1" d="M86.88,28.89c-.94,3.2-3.87,5.87-8.42,5.87-5.08,0-9.55-3.65-9.55-9.89,0-5.9,4.36-9.74,9.1-9.74,5.71,0,9.13,3.65,9.13,9.59,0,.71-.07,1.46-.07,1.54H73.83a4.51,4.51,0,0,0,4.66,4.21,4.1,4.1,0,0,0,4.22-2.82Zm-4.66-6.05c-.08-1.84-1.28-3.65-4.14-3.65A4,4,0,0,0,74,22.84Z"/><path class="cls-1" d="M93.22,28.1a3.07,3.07,0,0,0,3.38,2.82c1.65,0,2.44-.86,2.44-1.84,0-.83-.56-1.5-2-1.81l-2.44-.56c-3.57-.79-5.19-2.93-5.19-5.53,0-3.3,2.93-6,6.92-6,5.26,0,7,3.35,7.25,5.34l-4.17.94a2.82,2.82,0,0,0-3-2.48c-1.32,0-2.37.79-2.37,1.84s.67,1.47,1.69,1.65l2.63.57c3.65.75,5.49,3,5.49,5.68,0,3-2.33,6.09-7.18,6.09-5.57,0-7.48-3.61-7.71-5.72Z"/><path class="cls-1" d="M123.67,28.89c-.94,3.2-3.87,5.87-8.42,5.87-5.08,0-9.55-3.65-9.55-9.89,0-5.9,4.36-9.74,9.1-9.74,5.71,0,9.13,3.65,9.13,9.59,0,.71-.07,1.46-.07,1.54H110.63a4.5,4.5,0,0,0,4.66,4.21,4.09,4.09,0,0,0,4.21-2.82ZM119,22.84c-.08-1.84-1.28-3.65-4.14-3.65a4,4,0,0,0-4.13,3.65Z"/><path class="cls-1" d="M143.9,28.89c-.94,3.2-3.87,5.87-8.42,5.87-5.07,0-9.55-3.65-9.55-9.89,0-5.9,4.36-9.74,9.1-9.74,5.71,0,9.13,3.65,9.13,9.59,0,.71-.07,1.46-.07,1.54H130.86a4.5,4.5,0,0,0,4.66,4.21,4.09,4.09,0,0,0,4.21-2.82Zm-4.66-6.05c-.08-1.84-1.28-3.65-4.14-3.65A4,4,0,0,0,131,22.84Z"/><path class="cls-1" d="M151.19,24.94c0,3.35,2.18,5.23,4.74,5.23a4.22,4.22,0,0,0,4.24-3.12l4.4,1.47a8.58,8.58,0,0,1-8.64,6.24,9.57,9.57,0,0,1-9.74-9.82,9.47,9.47,0,0,1,9.59-9.81c5,0,7.89,3.12,8.68,6.24L160,22.88a4,4,0,0,0-4.1-3.12C153.33,19.76,151.19,21.6,151.19,24.94Z"/><path class="cls-1" d="M171.94,34.19h-5V7h5V17.24a6.62,6.62,0,0,1,5-2c4.7,0,6.88,3.27,6.88,7.33V34.19h-5V23.4c0-2.07-1-3.68-3.42-3.68-2.1,0-3.34,1.58-3.46,3.61Z"/><path class="cls-1" d="M189.77,6.52a3.09,3.09,0,1,1-3.09,3.12A3.08,3.08,0,0,1,189.77,6.52Zm-2.48,27.67V15.7h5V34.19Z"/><path class="cls-1" d="M201,34.19h-5V15.7h4.85V18a6.15,6.15,0,0,1,5.34-2.78c4.59,0,6.69,3.27,6.69,7.33V34.19h-5V23.4c0-2.07-1-3.68-3.42-3.68-2.18,0-3.46,1.69-3.46,3.83Z"/><path class="cls-1" d="M219.77,34a4.15,4.15,0,0,0,4.33,3.5c3.15,0,4.92-1.58,4.92-5.15V31a5.88,5.88,0,0,1-5.15,2.37c-4.92,0-8.61-3.8-8.61-9,0-4.89,3.54-9,8.61-9,2.93,0,4.63,1.28,5.26,2.52V15.7H234V32.2c0,5.08-2.75,9.7-9.7,9.7-5.08,0-8.46-3.16-9-6.69Zm9.33-9.62a4.41,4.41,0,1,0-8.8,0c0,2.89,1.84,4.7,4.44,4.7S229.1,27.24,229.1,24.38Z"/><path class="cls-2" d="M.08,20.43H14.5s.06,0,0-.08L.09.12A.07.07,0,0,1,.15,0H19.91A11.32,11.32,0,0,1,31.36,10.84a11.06,11.06,0,0,1-5.13,9.59A11.07,11.07,0,0,1,31.36,30,11.32,11.32,0,0,1,19.91,40.86H.08A.07.07,0,0,1,0,40.79V20.51A.08.08,0,0,1,.08,20.43Z"/></g></g></svg>